<mxfile host="app.diagrams.net" modified="2024-04-11T20:25:51.829Z" agent="Mozilla/5.0 (Windows NT 10.0; Win64; x64) AppleWebKit/537.36 (KHTML, like Gecko) Chrome/123.0.0.0 Safari/537.36" etag="p4BQwTfjD2sTtPR3GjB9" version="24.0.7" type="device">
  <diagram name="Página-1" id="65osaNSnWeLG4E8bxHqQ">
    <mxGraphModel dx="1154" dy="509" grid="0" gridSize="10" guides="1" tooltips="1" connect="1" arrows="1" fold="1" page="1" pageScale="1" pageWidth="827" pageHeight="1169" math="0" shadow="0">
      <root>
        <mxCell id="0" />
        <mxCell id="1" parent="0" />
        <mxCell id="qHnib171WOJUjDzK5tm3-1" value="Usuário" style="shape=umlActor;verticalLabelPosition=bottom;verticalAlign=top;html=1;outlineConnect=0;" parent="1" vertex="1">
          <mxGeometry x="80" y="180" width="40" height="80" as="geometry" />
        </mxCell>
        <mxCell id="qHnib171WOJUjDzK5tm3-2" value="Cadastrar" style="ellipse;whiteSpace=wrap;html=1;" parent="1" vertex="1">
          <mxGeometry x="200" y="180" width="120" height="60" as="geometry" />
        </mxCell>
        <mxCell id="qHnib171WOJUjDzK5tm3-3" value="Realizar&lt;div&gt;Investimento&lt;/div&gt;" style="ellipse;whiteSpace=wrap;html=1;" parent="1" vertex="1">
          <mxGeometry x="200" y="250" width="120" height="60" as="geometry" />
        </mxCell>
        <mxCell id="qHnib171WOJUjDzK5tm3-4" value="Consultar&lt;div&gt;Investimento&lt;/div&gt;" style="ellipse;whiteSpace=wrap;html=1;" parent="1" vertex="1">
          <mxGeometry x="200" y="320" width="120" height="60" as="geometry" />
        </mxCell>
        <mxCell id="qHnib171WOJUjDzK5tm3-5" value="Consultar&lt;div&gt;Ativo&lt;/div&gt;" style="ellipse;whiteSpace=wrap;html=1;" parent="1" vertex="1">
          <mxGeometry x="200" y="390" width="120" height="60" as="geometry" />
        </mxCell>
        <mxCell id="qHnib171WOJUjDzK5tm3-7" value="brapi&lt;div&gt;API&lt;/div&gt;" style="shape=umlActor;verticalLabelPosition=bottom;verticalAlign=top;html=1;outlineConnect=0;" parent="1" vertex="1">
          <mxGeometry x="80" y="380" width="40" height="80" as="geometry" />
        </mxCell>
        <mxCell id="qHnib171WOJUjDzK5tm3-8" value="" style="endArrow=classic;html=1;rounded=0;entryX=0;entryY=0.5;entryDx=0;entryDy=0;" parent="1" source="qHnib171WOJUjDzK5tm3-7" target="qHnib171WOJUjDzK5tm3-5" edge="1">
          <mxGeometry width="50" height="50" relative="1" as="geometry">
            <mxPoint x="300" y="440" as="sourcePoint" />
            <mxPoint x="350" y="390" as="targetPoint" />
          </mxGeometry>
        </mxCell>
        <mxCell id="qHnib171WOJUjDzK5tm3-9" value="" style="endArrow=classic;html=1;rounded=0;entryX=0.087;entryY=0.271;entryDx=0;entryDy=0;entryPerimeter=0;" parent="1" source="qHnib171WOJUjDzK5tm3-1" target="qHnib171WOJUjDzK5tm3-5" edge="1">
          <mxGeometry width="50" height="50" relative="1" as="geometry">
            <mxPoint x="200" y="300" as="sourcePoint" />
            <mxPoint x="120" y="300" as="targetPoint" />
          </mxGeometry>
        </mxCell>
        <mxCell id="qHnib171WOJUjDzK5tm3-10" value="" style="endArrow=classic;html=1;rounded=0;entryX=-0.023;entryY=0.477;entryDx=0;entryDy=0;entryPerimeter=0;" parent="1" source="qHnib171WOJUjDzK5tm3-1" target="qHnib171WOJUjDzK5tm3-4" edge="1">
          <mxGeometry width="50" height="50" relative="1" as="geometry">
            <mxPoint x="420" y="350" as="sourcePoint" />
            <mxPoint x="340" y="350" as="targetPoint" />
          </mxGeometry>
        </mxCell>
        <mxCell id="qHnib171WOJUjDzK5tm3-11" value="" style="endArrow=classic;html=1;rounded=0;entryX=0;entryY=0.5;entryDx=0;entryDy=0;" parent="1" source="qHnib171WOJUjDzK5tm3-1" target="qHnib171WOJUjDzK5tm3-3" edge="1">
          <mxGeometry width="50" height="50" relative="1" as="geometry">
            <mxPoint x="130" y="238" as="sourcePoint" />
            <mxPoint x="207" y="269" as="targetPoint" />
          </mxGeometry>
        </mxCell>
        <mxCell id="qHnib171WOJUjDzK5tm3-12" value="" style="endArrow=classic;html=1;rounded=0;entryX=0;entryY=0.5;entryDx=0;entryDy=0;" parent="1" source="qHnib171WOJUjDzK5tm3-1" target="qHnib171WOJUjDzK5tm3-14" edge="1">
          <mxGeometry width="50" height="50" relative="1" as="geometry">
            <mxPoint x="120" y="150" as="sourcePoint" />
            <mxPoint x="200" y="118" as="targetPoint" />
          </mxGeometry>
        </mxCell>
        <mxCell id="qHnib171WOJUjDzK5tm3-13" value="&amp;lt;&amp;lt; extends&amp;gt;&amp;gt;" style="endArrow=open;endSize=12;dashed=1;html=1;rounded=0;entryX=0.5;entryY=1;entryDx=0;entryDy=0;exitX=0.5;exitY=0;exitDx=0;exitDy=0;" parent="1" source="qHnib171WOJUjDzK5tm3-2" target="qHnib171WOJUjDzK5tm3-14" edge="1">
          <mxGeometry x="-0.2" width="160" relative="1" as="geometry">
            <mxPoint x="420" y="130" as="sourcePoint" />
            <mxPoint x="450" y="170" as="targetPoint" />
            <mxPoint as="offset" />
          </mxGeometry>
        </mxCell>
        <mxCell id="qHnib171WOJUjDzK5tm3-14" value="Logar" style="ellipse;whiteSpace=wrap;html=1;" parent="1" vertex="1">
          <mxGeometry x="200" y="70" width="120" height="60" as="geometry" />
        </mxCell>
        <mxCell id="Ca4swngypMTQrP5Ow3PM-1" value="" style="endArrow=classic;html=1;rounded=0;entryX=0;entryY=0.5;entryDx=0;entryDy=0;" edge="1" parent="1" source="qHnib171WOJUjDzK5tm3-1" target="qHnib171WOJUjDzK5tm3-2">
          <mxGeometry width="50" height="50" relative="1" as="geometry">
            <mxPoint x="130" y="242" as="sourcePoint" />
            <mxPoint x="210" y="290" as="targetPoint" />
          </mxGeometry>
        </mxCell>
      </root>
    </mxGraphModel>
  </diagram>
</mxfile>
